<svg height="512pt" viewBox="0 -5 512 512" width="512pt" xmlns="http://www.w3.org/2000/svg"><path d="m384.953125 220.40625-19.75-1.507812c-1.003906-3.484376-2.355469-6.816407-4.027344-9.957032l13.226563-14.9375c1.421875-1.609375 1.347656-4.042968-.167969-5.5625l-13.226563-13.226562c-1.503906-1.503906-3.90625-1.59375-5.519531-.210938l-15.027343 12.894532c-3.113282-1.722657-6.425782-3.136719-9.890626-4.195313l-1.210937-19.90625c-.128906-2.144531-1.90625-3.816406-4.054687-3.816406h-18.703126c-2.125 0-3.890624 1.636719-4.050781 3.753906l-1.507812 19.746094c-3.75 1.082031-7.328125 2.566406-10.675781 4.417969l-15.027344-12.894532c-1.613282-1.382812-4.015625-1.289062-5.515625.210938l-13.226563 13.226562c-1.519531 1.519532-1.59375 3.957032-.171875 5.5625l-10.550781 26.402344c-2.117188.164062-3.75 1.929688-3.75 4.050781v18.703125c0 2.148438 1.671875 3.925782 3.8125 4.054688l19.910156 1.210937c1.058594 3.46875 2.472656 6.777344 4.195313 9.890625l-12.898438 15.03125c-1.378906 1.609375-1.289062 4.015625.210938 5.515625l13.226562 13.226563c1.519531 1.519531 3.957031 1.59375 5.566407.167968l14.9375-13.226562c3.140624 1.671875 6.472656 3.027344 9.953124 4.03125l1.511719 19.746094c.160157 2.117187 1.925781 3.753906 4.046875 3.753906h18.707032c2.144531 0 3.921874-1.671875 4.054687-3.816406l1.210937-19.90625c3.199219-.976563 6.265626-2.257813 9.171876-3.804688l14.9375 13.226563c1.609374 1.421875 4.046874 1.347656 5.5625-.171875l13.230468-13.226563c1.5-1.5 1.589844-3.902343.207032-5.515625l-12.894532-15.027344c1.722656-3.117187 3.136719-6.425781 4.195313-9.890624l19.910156-1.210938c2.140625-.132812 3.8125-1.910156 3.8125-4.054688v-18.707031c0-2.121093-1.632813-3.886719-3.75-4.050781zm-69.539063 34.351562c-11.867187 0-21.488281-9.617187-21.488281-21.488281 0-11.867187 9.621094-21.488281 21.488281-21.488281 11.867188 0 21.488282 9.621094 21.488282 21.488281 0 11.867188-9.621094 21.488281-21.488282 21.488281zm0 0" fill="#89b4c9"/><path d="m283.648438 130.167969-19.957032-1.523438c-1.894531-7.605469-4.847656-14.78125-8.679687-21.390625l13.421875-15.160156c2.050781-2.320312 1.945312-5.835938-.246094-8.023438l-19.074219-19.074218c-2.164062-2.164063-5.628906-2.296875-7.953125-.304688l-15.191406 13.039063c-6.554688-3.941407-13.695312-6.996094-21.265625-9.007813l-1.226563-20.195312c-.1875-3.089844-2.75-5.5-5.84375-5.5h-26.976562c-3.058594 0-5.605469 2.359375-5.839844 5.410156l-1.523437 19.957031c-8.035157 2.003907-15.609375 5.175781-22.523438 9.332031l-15.195312-13.035156c-2.320313-1.992187-5.789063-1.859375-7.953125.304688l-19.074219 19.074218c-2.1875 2.1875-2.296875 5.703126-.242187 8.023438l13.421874 15.160156c-3.835937 6.609375-6.785156 13.785156-8.679687 21.390625l-19.960937 1.523438c-3.050782.234375-5.410157 2.777343-5.410157 5.839843v26.972657c0 3.097656 2.410157 5.660156 5.503907 5.847656l20.191406 1.226563c2.015625 7.570312 5.066406 14.710937 9.007812 21.261718l-13.035156 15.195313c-1.996094 2.320312-1.863281 5.789062.300781 7.953125l19.074219 19.074218c2.1875 2.1875 5.707031 2.296876 8.023438.242188l15.160156-13.421875c6.609375 3.835937 13.789062 6.789063 21.390625 8.679687l1.523437 19.960938c.234375 3.050781 2.78125 5.410156 5.839844 5.410156h26.976562c3.09375 0 5.65625-2.410156 5.84375-5.503906l1.226563-20.191406c7.136719-1.898438 13.886719-4.734375 20.128906-8.355469l15.160157 13.421875c2.320312 2.054688 5.835937 1.945312 8.023437-.242188l19.074219-19.074218c2.164062-2.164063 2.296875-5.632813.304687-7.957032l-13.039062-15.191406c3.941406-6.550781 6.996093-13.695312 9.007812-21.261718l20.195313-1.226563c3.089844-.1875 5.5-2.75 5.5-5.847656v-26.972657c0-3.0625-2.359375-5.605468-5.410156-5.839843zm-100.28125 65.84375c-26.117188 0-47.289063-21.175781-47.289063-47.292969s21.171875-47.289062 47.289063-47.289062c26.117187 0 47.289062 21.171874 47.289062 47.289062s-21.171875 47.292969-47.289062 47.292969zm0 0" fill="#a7c7d3"/><path d="m283.648438 130.167969-19.957032-1.523438c-1.894531-7.605469-4.847656-14.78125-8.679687-21.390625l13.421875-15.160156c2.050781-2.320312 1.945312-5.835938-.246094-8.023438l-19.074219-19.074218c-2.164062-2.164063-5.628906-2.296875-7.953125-.304688l-15.191406 13.039063c-6.554688-3.941407-13.695312-6.996094-21.265625-9.007813l-1.226563-20.195312c-.1875-3.089844-2.75-5.5-5.84375-5.5h-26.976562c-3.058594 0-5.605469 2.359375-5.839844 5.410156l-1.523437 19.957031c-8.035157 2.003907-15.609375 5.175781-22.523438 9.332031l-15.195312-13.035156c-2.320313-1.992187-5.789063-1.859375-7.953125.304688l-19.074219 19.074218c-2.1875 2.1875-2.296875 5.703126-.242187 8.023438l13.421874 15.160156c-3.835937 6.609375-6.785156 13.785156-8.679687 21.390625l-19.960937 1.523438c-3.050782.234375-5.410157 2.777343-5.410157 5.839843v26.972657c0 3.097656 2.410157 5.660156 5.503907 5.847656l20.191406 1.226563c2.015625 7.570312 5.066406 14.710937 9.007812 21.261718l-13.035156 15.195313c-1.996094 2.320312-1.863281 5.789062.300781 7.953125l19.074219 19.074218c2.1875 2.1875 5.707031 2.296876 8.023438.242188l15.160156-13.421875c6.609375 3.835937 13.789062 6.789063 21.390625 8.679687l1.523437 19.960938c.234375 3.050781 2.78125 5.410156 5.839844 5.410156h26.976562c3.09375 0 5.65625-2.410156 5.84375-5.503906l1.226563-20.191406c7.136719-1.898438 13.886719-4.734375 20.128906-8.355469l15.160157 13.421875c2.320312 2.054688 5.835937 1.945312 8.023437-.242188l19.074219-19.074218c2.164062-2.164063 2.296875-5.632813.304687-7.957032l-13.039062-15.191406c3.941406-6.550781 6.996093-13.695312 9.007812-21.261718l20.195313-1.226563c3.089844-.1875 5.5-2.75 5.5-5.847656v-26.972657c0-3.0625-2.359375-5.605468-5.410156-5.839843zm-100.28125 65.84375c-26.117188 0-47.289063-21.175781-47.289063-47.292969s21.171875-47.289062 47.289063-47.289062c26.117187 0 47.289062 21.171874 47.289062 47.289062s-21.171875 47.292969-47.289062 47.292969zm0 0" fill="#a7c7d3"/><path d="m119.457031 260.988281c-2.214843.238281-4.441406-.269531-6.332031-1.4375l-45.757812-29.324219c-8.113282-5.199218-18.800782-3.699218-25.171876 3.527344l-3.472656 3.9375c-5.164062 5.855469-8.042968 13.378906-8.105468 21.1875l-.496094 59.652344 28.542968 1.601562 23.65625-2.304687.617188-46.0625 26.167969 14.550781c1.855469 1.03125 3.988281 1.445313 6.09375 1.1875l38.300781-4.714844c14.179688-1.742187 24.828125-13.785156 24.828125-28.070312zm0 0" fill="#ff84a7"/><path d="m160.460938 256.621094c-4.339844 4.394531-28.871094 25.8125-61.054688 11.722656l-14.863281-8.265625c-5.109375-2.839844-11.402344.804687-11.480469 6.652344-.246094 18.433593-15.132812 33.320312-33.570312 33.570312l-9.222657.125-.148437 18.101563 52.199218-.703125.617188-46.058594 26.167969 14.550781c1.855469 1.03125 3.988281 1.445313 6.09375 1.1875l38.300781-4.714844c14.179688-1.746093 24.828125-13.785156 24.828125-28.070312zm0 0" fill="#ef6085"/><path d="m82.320312 317.824219 53.269532 55.410156c4.914062 4.984375 5.816406 12.667969 2.195312 18.65625l-31.75 77.25h-18.332031l15.355469-68.347656c.730468-1.828125.46875-3.902344-.6875-5.496094l-72.25-76.769531zm0 0" fill="#38627c"/><path d="m30.121094 318.527344 52.199218-.703125-52.199218 151.316406h-19.417969zm0 0" fill="#4f7693"/><path d="m44.386719 193.894531-1.652344 17.472657c-.773437 8.210937 5.253906 15.496093 13.464844 16.269531l6.914062.652343c8.210938.777344 15.496094-5.25 16.269531-13.460937l1.652344-17.472656c.773438-8.210938-5.253906-15.496094-13.464844-16.269531l-6.914062-.65625c-8.210938-.773438-15.496094 5.253906-16.269531 13.464843zm0 0" fill="#fedfc5"/><path d="m38.027344 502.511719h-30.371094c-4.226562 0-7.65625-3.425781-7.65625-7.65625s3.429688-7.660157 7.65625-7.660157h30.371094c4.230468 0 7.660156 3.429688 7.660156 7.660157s-3.429688 7.65625-7.660156 7.65625zm0 0" fill="#2f5066"/><path d="m115.316406 502.511719h-30.371094c-4.226562 0-7.65625-3.425781-7.65625-7.65625s3.429688-7.660157 7.65625-7.660157h30.371094c4.230469 0 7.660156 3.429688 7.660156 7.660157s-3.429687 7.65625-7.660156 7.65625zm0 0" fill="#2f5066"/><path d="m469.167969 250.207031-97.828125-53.136719c-4.269532 15.523438 2.273437 31.992188 16.03125 40.351563l49.230468 29.914063-.949218 60.882812 26.496094 12.855469 21.179687 6.683593v-73.742187c.003906-9.933594-5.433594-19.070313-14.160156-23.808594zm0 0" fill="#83d9ff"/><path d="m421.714844 258.289062c.15625-9.996093-4.996094-19.328124-13.542969-24.523437l-35.4375-21.53125c-.847656-.515625-1.667969-1.0625-2.464844-1.640625 1.210938 10.871094 7.335938 20.894531 17.101563 26.828125zm0 0" fill="#5fc9ed"/><path d="m469.164062 250.203125-.46875-.253906v37.234375c0 16.882812-17.121093 28.371094-32.742187 21.96875l-.296875 19.066406 47.675781 19.539062v-73.742187c0-9.933594-5.4375-19.070313-14.167969-23.8125zm0 0" fill="#5fc9ed"/><path d="m435.65625 328.21875-43.488281 60.453125c-2.230469 3.097656-3.242188 6.910156-2.851563 10.710937l7.351563 70.820313h17.195312l4.457031-56.582031c.304688-3.902344 2.070313-7.546875 4.941407-10.207032l60.070312-55.65625zm0 0" fill="#38627c"/><path d="m483.332031 347.757812-13.464843 54.359376c-.847657 3.414062-.410157 7.019531 1.226562 10.132812l30.472656 57.953125h-18.238281l-46.808594-54.492187c-2.855469-3.320313-4.335937-7.601563-4.144531-11.972657l3.277344-75.519531zm0 0" fill="#4f7693"/><path d="m458.605469 207.96875-8 15.621094c-3.761719 7.339844-.859375 16.339844 6.484375 20.097656l6.179687 3.167969c7.339844 3.757812 16.339844.855469 20.097657-6.484375l8.003906-15.621094c3.757812-7.339844.855468-16.339844-6.484375-20.097656l-6.183594-3.167969c-7.339844-3.757813-16.335937-.855469-20.097656 6.484375zm0 0" fill="#fedfc5"/><path d="m504.34375 502.511719h-30.371094c-4.230468 0-7.660156-3.425781-7.660156-7.65625s3.429688-7.660157 7.660156-7.660157h30.371094c4.226562 0 7.65625 3.429688 7.65625 7.660157s-3.429688 7.65625-7.65625 7.65625zm0 0" fill="#2f5066"/><path d="m415 502.511719h-30.371094c-4.230468 0-7.65625-3.425781-7.65625-7.65625s3.425782-7.660157 7.65625-7.660157h30.371094c4.226562 0 7.65625 3.429688 7.65625 7.660157s-3.429688 7.65625-7.65625 7.65625zm0 0" fill="#2f5066"/><g fill="#fce6a9"><path d="m412.742188 184.535156c-2.792969 0-5.484376-1.53125-6.835938-4.195312-14.957031-29.496094-44.777344-47.820313-77.828125-47.820313-4.226563 0-7.65625-3.429687-7.65625-7.660156s3.429687-7.65625 7.65625-7.65625c38.851563 0 73.90625 21.539063 91.488281 56.210937 1.914063 3.773438.40625 8.378907-3.367187 10.292969-1.109375.5625-2.292969.828125-3.457031.828125zm0 0"/><path d="m412.859375 184.535156c-.605469 0-1.210937-.070312-1.804687-.214844l-23.878907-5.789062c-4.109375-.996094-6.636719-5.136719-5.640625-9.246094s5.136719-6.632812 9.25-5.640625l16.433594 3.988281 3.554688-14.65625c.996093-4.109374 5.132812-6.632812 9.246093-5.636718 4.109375.996094 6.632813 5.136718 5.636719 9.246094l-5.355469 22.09375c-.480469 1.976562-1.722656 3.679687-3.457031 4.734374-1.210938.738282-2.589844 1.121094-3.984375 1.121094zm0 0"/><path d="m45.601562 99.800781c-.972656 0-1.957031-.183593-2.910156-.574219-3.914062-1.609374-5.78125-6.085937-4.171875-9.996093 22.289063-54.207031 74.5625-89.230469 133.171875-89.230469 4.226563 0 7.65625 3.429688 7.65625 7.65625 0 4.230469-3.429687 7.660156-7.65625 7.660156-52.375 0-99.089844 31.296875-119.003906 79.738282-1.21875 2.957031-4.074219 4.746093-7.085938 4.746093zm0 0"/><path d="m45.785156 99.800781c-1.101562 0-2.207031-.238281-3.226562-.714843-1.84375-.855469-3.269532-2.410157-3.964844-4.316407l-9.027344-24.71875c-1.453125-3.972656.589844-8.371093 4.566406-9.820312 3.96875-1.449219 8.367188.589843 9.816407 4.566406l6.402343 17.523437 17.527344-6.398437c3.96875-1.449219 8.367188.589844 9.820313 4.5625 1.449219 3.976563-.59375 8.371094-4.566407 9.824219l-24.71875 9.027344c-.847656.308593-1.738281.464843-2.628906.464843zm0 0"/></g></svg>